<svg xmlns="http://www.w3.org/2000/svg" version="1.1" xmlns:xlink="http://www.w3.org/1999/xlink" width="256" height="256"><svg width="256" height="256" viewBox="0 0 256 256" fill="none" xmlns="http://www.w3.org/2000/svg">
<rect width="256" height="256" rx="52" fill="#225544"></rect>
<rect width="256" height="256" rx="52" fill="#001122"></rect>
<path d="M128 221C110.048 221 94.7262 214.645 82.0357 201.935C69.3452 189.225 63 173.88 63 155.9V100.1C63 82.12 69.3452 66.775 82.0357 54.065C94.7262 41.355 110.048 35 128 35C145.952 35 161.274 41.355 173.964 54.065C186.655 66.775 193 82.12 193 100.1V155.9C193 173.88 186.655 189.225 173.964 201.935C161.274 214.645 145.952 221 128 221ZM137.286 100.1H174.429C174.429 88.94 170.908 79.0975 163.866 70.5725C156.824 62.0475 147.964 56.7 137.286 54.53V100.1ZM81.5714 100.1H118.714V54.53C108.036 56.7 99.1756 62.0475 92.1339 70.5725C85.0923 79.0975 81.5714 88.94 81.5714 100.1ZM128 202.4C140.845 202.4 151.795 197.866 160.848 188.799C169.902 179.731 174.429 168.765 174.429 155.9V118.7H81.5714V155.9C81.5714 168.765 86.0982 179.731 95.1518 188.799C104.205 197.866 115.155 202.4 128 202.4Z" fill="#00FF88"></path>
</svg><style>@media (prefers-color-scheme: light) { :root { filter: none; } }
@media (prefers-color-scheme: dark) { :root { filter: none; } }
</style></svg>