<svg width="17" height="13" viewBox="0 0 17 13" fill="none" xmlns="http://www.w3.org/2000/svg">
<path d="M14.4006 1.08873C13.2837 0.572788 12.1046 0.206761 10.8934 0C10.7277 0.298946 10.5777 0.606522 10.4441 0.92144C9.15398 0.725283 7.84198 0.725283 6.55182 0.92144C6.41819 0.606555 6.26822 0.298982 6.10255 0C4.89058 0.208507 3.71068 0.575403 2.59264 1.09143C0.37304 4.40484 -0.228658 7.63595 0.072191 10.8212C1.37204 11.7902 2.82695 12.5271 4.37367 13C4.72194 12.5274 5.03012 12.026 5.29494 11.5011C4.79196 11.3116 4.3065 11.0778 3.84417 10.8023C3.96585 10.7133 4.08485 10.6215 4.19985 10.5325C5.54511 11.1708 7.01339 11.5018 8.49999 11.5018C9.98658 11.5018 11.4549 11.1708 12.8001 10.5325C12.9165 10.6283 13.0355 10.72 13.1558 10.8023C12.6926 11.0782 12.2062 11.3125 11.7024 11.5025C11.9668 12.0271 12.275 12.5281 12.6236 13C14.1717 12.529 15.6277 11.7924 16.9278 10.8225C17.2808 7.12868 16.3247 3.92725 14.4006 1.08873ZM5.67601 8.86229C4.83765 8.86229 4.14502 8.09464 4.14502 7.15027C4.14502 6.20589 4.81358 5.43151 5.67334 5.43151C6.5331 5.43151 7.22037 6.20589 7.20567 7.15027C7.19096 8.09464 6.53043 8.86229 5.67601 8.86229ZM11.324 8.86229C10.4843 8.86229 9.79431 8.09464 9.79431 7.15027C9.79431 6.20589 10.4629 5.43151 11.324 5.43151C12.1851 5.43151 12.867 6.20589 12.8523 7.15027C12.8376 8.09464 12.1784 8.86229 11.324 8.86229Z" fill="#FFFFFF"/>
</svg>
